<?xml version="1.0" standalone="no"?><!DOCTYPE svg PUBLIC "-//W3C//DTD SVG 1.1//EN" "http://www.w3.org/Graphics/SVG/1.1/DTD/svg11.dtd"><svg xmlns="http://www.w3.org/2000/svg" version="1.1" width="1009.5" height="745.667" xmlns:xlink="http://www.w3.org/1999/xlink" xlink="http://www.w3.org/1999/xlink" style="position:relative;overflow:hidden;" viewBox="-8 0.333 1009.5 745.667"><defs><filter id="9a5a5d5b-c323-475d-8440-eacd11ce47ab" x="-0.5" y="-0.5" width="2" height="2"><feFlood flood-color="#000" flood-opacity="0.6" result="flood"/><feComposite in="flood" in2="SourceAlpha" operator="in" result="mask"/><feGaussianBlur in="mask" stdDeviation="2"/><feOffset dx="1.25" dy="1.25" result="oEffect0"/><feMerge><feMergeNode in="oEffect0"/><feMergeNode in="SourceGraphic"/></feMerge></filter></defs><g><g width="983" height="718.667" transform="scale(1,1) translate(9,17.333)"><g stroke="#7F7F7F" opacity="1" stroke-width="1" stroke-dasharray="none" width="983" height="718.667" transform="scale(1,1) translate(0,0)" fill="none" stroke-opacity="1"><rect width="983" height="718.667"/></g><g transform="scale(1,1) translate(0,0)" fill="#92B0CF" opacity="0.01" stroke="#92B0CF"><path d="M0.5,0.5 L982.5,0.5 L982.5,37.833 L0.5,37.833 z M0.5,37.833 L82.333,37.833 L82.333,75.333 L0.5,75.333 z M82.333,37.833 L164.167,37.833 L164.167,75.333 L82.333,75.333 z M164.167,37.833 L246,37.833 L246,75.333 L164.167,75.333 z M246,37.833 L327.833,37.833 L327.833,75.333 L246,75.333 z M327.833,37.833 L409.667,37.833 L409.667,75.333 L327.833,75.333 z M409.667,37.833 L491.5,37.833 L491.5,75.333 L409.667,75.333 z M491.5,37.833 L573.333,37.833 L573.333,75.333 L491.5,75.333 z M573.333,37.833 L655.167,37.833 L655.167,75.333 L573.333,75.333 z M655.167,37.833 L737,37.833 L737,75.333 L655.167,75.333 z M737,37.833 L818.833,37.833 L818.833,75.333 L737,75.333 z M818.833,37.833 L900.667,37.833 L900.667,75.333 L818.833,75.333 z M900.667,37.833 L982.5,37.833 L982.5,75.333 L900.667,75.333 z M0.5,75.333 L82.333,75.333 L82.333,167.833 L0.5,167.833 z M82.333,75.333 L164.167,75.333 L164.167,167.833 L82.333,167.833 z M164.167,75.333 L246,75.333 L246,167.833 L164.167,167.833 z M246,75.333 L327.833,75.333 L327.833,167.833 L246,167.833 z M327.833,75.333 L409.667,75.333 L409.667,167.833 L327.833,167.833 z M409.667,75.333 L491.5,75.333 L491.5,167.833 L409.667,167.833 z M491.5,75.333 L573.333,75.333 L573.333,167.833 L491.5,167.833 z M573.333,75.333 L655.167,75.333 L655.167,167.833 L573.333,167.833 z M655.167,75.333 L737,75.333 L737,167.833 L655.167,167.833 z M737,75.333 L818.833,75.333 L818.833,167.833 L737,167.833 z M818.833,75.333 L900.667,75.333 L900.667,167.833 L818.833,167.833 z M900.667,75.333 L982.5,75.333 L982.5,167.833 L900.667,167.833 z M0.5,167.833 L82.333,167.833 L82.333,260.333 L0.5,260.333 z M82.333,167.833 L164.167,167.833 L164.167,260.333 L82.333,260.333 z M164.167,167.833 L246,167.833 L246,260.333 L164.167,260.333 z M246,167.833 L327.833,167.833 L327.833,260.333 L246,260.333 z M327.833,167.833 L409.667,167.833 L409.667,260.333 L327.833,260.333 z M409.667,167.833 L491.5,167.833 L491.5,260.333 L409.667,260.333 z M491.5,167.833 L573.333,167.833 L573.333,260.333 L491.5,260.333 z M573.333,167.833 L655.167,167.833 L655.167,260.333 L573.333,260.333 z M655.167,167.833 L737,167.833 L737,260.333 L655.167,260.333 z M737,167.833 L818.833,167.833 L818.833,260.333 L737,260.333 z M818.833,167.833 L900.667,167.833 L900.667,260.333 L818.833,260.333 z M900.667,167.833 L982.5,167.833 L982.5,260.333 L900.667,260.333 z M0.5,260.333 L82.333,260.333 L82.333,352.833 L0.5,352.833 z M82.333,260.333 L164.167,260.333 L164.167,352.833 L82.333,352.833 z M164.167,260.333 L246,260.333 L246,352.833 L164.167,352.833 z M246,260.333 L327.833,260.333 L327.833,352.833 L246,352.833 z M327.833,260.333 L409.667,260.333 L409.667,352.833 L327.833,352.833 z M409.667,260.333 L491.5,260.333 L491.5,352.833 L409.667,352.833 z M491.5,260.333 L573.333,260.333 L573.333,352.833 L491.5,352.833 z M573.333,260.333 L655.167,260.333 L655.167,352.833 L573.333,352.833 z M655.167,260.333 L737,260.333 L737,352.833 L655.167,352.833 z M737,260.333 L818.833,260.333 L818.833,352.833 L737,352.833 z M818.833,260.333 L900.667,260.333 L900.667,352.833 L818.833,352.833 z M900.667,260.333 L982.5,260.333 L982.5,352.833 L900.667,352.833 z M0.5,352.833 L82.333,352.833 L82.333,445 L0.5,445 z M82.333,352.833 L164.167,352.833 L164.167,445 L82.333,445 z M164.167,352.833 L246,352.833 L246,445 L164.167,445 z M246,352.833 L327.833,352.833 L327.833,445 L246,445 z M327.833,352.833 L409.667,352.833 L409.667,445 L327.833,445 z M409.667,352.833 L491.5,352.833 L491.5,445 L409.667,445 z M491.5,352.833 L573.333,352.833 L573.333,445 L491.5,445 z M573.333,352.833 L655.167,352.833 L655.167,445 L573.333,445 z M655.167,352.833 L737,352.833 L737,445 L655.167,445 z M737,352.833 L818.833,352.833 L818.833,445 L737,445 z M818.833,352.833 L900.667,352.833 L900.667,445 L818.833,445 z M900.667,352.833 L982.5,352.833 L982.5,445 L900.667,445 z M0.5,445 L82.333,445 L82.333,537.5 L0.5,537.5 z M82.333,445 L164.167,445 L164.167,537.5 L82.333,537.5 z M164.167,445 L246,445 L246,537.5 L164.167,537.5 z M246,445 L327.833,445 L327.833,537.5 L246,537.5 z M327.833,445 L409.667,445 L409.667,537.5 L327.833,537.5 z M409.667,445 L491.5,445 L491.5,537.5 L409.667,537.5 z M491.5,445 L573.333,445 L573.333,537.5 L491.5,537.5 z M573.333,445 L655.167,445 L655.167,537.5 L573.333,537.5 z M655.167,445 L737,445 L737,537.5 L655.167,537.5 z M737,445 L818.833,445 L818.833,537.5 L737,537.5 z M818.833,445 L900.667,445 L900.667,537.5 L818.833,537.5 z M900.667,445 L982.5,445 L982.5,537.5 L900.667,537.5 z M0.5,537.5 L82.333,537.5 L82.333,630 L0.5,630 z M82.333,537.5 L164.167,537.5 L164.167,630 L82.333,630 z M164.167,537.5 L246,537.5 L246,630 L164.167,630 z M246,537.5 L327.833,537.5 L327.833,630 L246,630 z M327.833,537.5 L409.667,537.5 L409.667,630 L327.833,630 z M409.667,537.5 L491.5,537.5 L491.5,630 L409.667,630 z M491.5,537.5 L573.333,537.5 L573.333,630 L491.5,630 z M573.333,537.5 L655.167,537.5 L655.167,630 L573.333,630 z M655.167,537.5 L737,537.5 L737,630 L655.167,630 z M737,537.5 L818.833,537.5 L818.833,630 L737,630 z M818.833,537.5 L900.667,537.5 L900.667,630 L818.833,630 z M900.667,537.5 L982.5,537.5 L982.5,630 L900.667,630 z M0.5,630 L82.333,630 L82.333,718.167 L0.5,718.167 z M82.333,630 L164.167,630 L164.167,718.167 L82.333,718.167 z M164.167,630 L246,630 L246,718.167 L164.167,718.167 z M246,630 L327.833,630 L327.833,718.167 L246,718.167 z M327.833,630 L409.667,630 L409.667,718.167 L327.833,718.167 z M409.667,630 L491.5,630 L491.5,718.167 L409.667,718.167 z M491.5,630 L573.333,630 L573.333,718.167 L491.5,718.167 z M573.333,630 L655.167,630 L655.167,718.167 L573.333,718.167 z M655.167,630 L737,630 L737,718.167 L655.167,718.167 z M737,630 L818.833,630 L818.833,718.167 L737,718.167 z M818.833,630 L900.667,630 L900.667,718.167 L818.833,718.167 z M900.667,630 L982.5,630 L982.5,718.167 L900.667,718.167 z" stroke-width="0" stroke-dasharray="none"/></g><g width="978" height="32.33333333333333" transform="scale(1,1) translate(2.5,2.5)"><text width="978" height="21.875" transform="scale(1,1) translate(0,5.229166666666664)" xml:space="preserve"><tspan xml:space="preserve" text-rendering="optimizeSpeed" font-size="19.444444444444443" font-weight="bold" font-style="normal" fill="#333333" opacity="1" x="371.233" text-anchor="start" y="17.708" textLength="235.53387451171875" style="font-family: Arial, Helvetica Neue, Helvetica, sans-serif;">Mesopotamia Experiment</tspan></text></g><g width="76.83333333333333" height="32.5" transform="scale(1,1) translate(2.5,39.833)"><text width="76.83333333333333" height="15.624999046325684" transform="scale(1,1) translate(0,8.437500476837158)" xml:space="preserve"><tspan xml:space="preserve" text-rendering="optimizeSpeed" font-size="13.88888888888889" font-weight="bold" font-style="normal" fill="#333333" opacity="1" x="12.944" text-anchor="start" y="12.5" textLength="50.94480514526367" style="font-family: Arial, Helvetica Neue, Helvetica, sans-serif;">4500BC</tspan></text></g><g width="76.83333333333333" height="32.5" transform="scale(1,1) translate(84.333,39.833)"><text width="76.83333333333333" height="15.624999046325684" transform="scale(1,1) translate(0,8.437500476837158)" xml:space="preserve"><tspan xml:space="preserve" text-rendering="optimizeSpeed" font-size="13.88888888888889" font-weight="bold" font-style="normal" fill="#333333" opacity="1" x="12.944" text-anchor="start" y="12.5" textLength="50.94480514526367" style="font-family: Arial, Helvetica Neue, Helvetica, sans-serif;">4499BC</tspan></text></g><g width="76.83333333333333" height="32.5" transform="scale(1,1) translate(166.167,39.833)"><text width="76.83333333333333" height="15.624999046325684" transform="scale(1,1) translate(0,8.437500476837158)" xml:space="preserve"><tspan xml:space="preserve" text-rendering="optimizeSpeed" font-size="13.88888888888889" font-weight="bold" font-style="normal" fill="#333333" opacity="1" x="12.944" text-anchor="start" y="12.5" textLength="50.94480514526367" style="font-family: Arial, Helvetica Neue, Helvetica, sans-serif;">4498BC</tspan></text></g><g width="76.83333333333333" height="32.5" transform="scale(1,1) translate(248,39.833)"><text width="76.83333333333333" height="15.624999046325684" transform="scale(1,1) translate(0,8.437500476837158)" xml:space="preserve"><tspan xml:space="preserve" text-rendering="optimizeSpeed" font-size="13.88888888888889" font-weight="bold" font-style="normal" fill="#333333" opacity="1" x="12.944" text-anchor="start" y="12.5" textLength="50.94480514526367" style="font-family: Arial, Helvetica Neue, Helvetica, sans-serif;">4497BC</tspan></text></g><g width="76.83333333333333" height="32.5" transform="scale(1,1) translate(329.833,39.833)"><text width="76.83333333333333" height="15.624999046325684" transform="scale(1,1) translate(0,8.437500476837158)" xml:space="preserve"><tspan xml:space="preserve" text-rendering="optimizeSpeed" font-size="13.88888888888889" font-weight="bold" font-style="normal" fill="#333333" opacity="1" x="12.944" text-anchor="start" y="12.5" textLength="50.94480514526367" style="font-family: Arial, Helvetica Neue, Helvetica, sans-serif;">4496BC</tspan></text></g><g width="76.83333333333333" height="32.5" transform="scale(1,1) translate(411.667,39.833)"><text width="76.83333333333333" height="15.624999046325684" transform="scale(1,1) translate(0,8.437500476837158)" xml:space="preserve"><tspan xml:space="preserve" text-rendering="optimizeSpeed" font-size="13.88888888888889" font-weight="bold" font-style="normal" fill="#333333" opacity="1" x="12.944" text-anchor="start" y="12.5" textLength="50.94480514526367" style="font-family: Arial, Helvetica Neue, Helvetica, sans-serif;">4495BC</tspan></text></g><g width="76.83333333333333" height="32.5" transform="scale(1,1) translate(493.5,39.833)"><text width="76.83333333333333" height="15.624999046325684" transform="scale(1,1) translate(0,8.437500476837158)" xml:space="preserve"><tspan xml:space="preserve" text-rendering="optimizeSpeed" font-size="13.88888888888889" font-weight="bold" font-style="normal" fill="#333333" opacity="1" x="12.944" text-anchor="start" y="12.5" textLength="50.94480514526367" style="font-family: Arial, Helvetica Neue, Helvetica, sans-serif;">4494BC</tspan></text></g><g width="76.83333333333333" height="32.5" transform="scale(1,1) translate(575.333,39.833)"><text width="76.83333333333333" height="15.624999046325684" transform="scale(1,1) translate(0,8.437500476837158)" xml:space="preserve"><tspan xml:space="preserve" text-rendering="optimizeSpeed" font-size="13.88888888888889" font-weight="bold" font-style="normal" fill="#333333" opacity="1" x="12.944" text-anchor="start" y="12.5" textLength="50.94480514526367" style="font-family: Arial, Helvetica Neue, Helvetica, sans-serif;">4493BC</tspan></text></g><g width="76.83333333333333" height="32.5" transform="scale(1,1) translate(657.167,39.833)"><text width="76.83333333333333" height="15.624999046325684" transform="scale(1,1) translate(0,8.437500476837158)" xml:space="preserve"><tspan xml:space="preserve" text-rendering="optimizeSpeed" font-size="13.88888888888889" font-weight="bold" font-style="normal" fill="#333333" opacity="1" x="12.944" text-anchor="start" y="12.5" textLength="50.94480514526367" style="font-family: Arial, Helvetica Neue, Helvetica, sans-serif;">4492BC</tspan></text></g><g width="76.83333333333333" height="32.5" transform="scale(1,1) translate(739,39.833)"><text width="76.83333333333333" height="15.624999046325684" transform="scale(1,1) translate(0,8.437500476837158)" xml:space="preserve"><tspan xml:space="preserve" text-rendering="optimizeSpeed" font-size="13.88888888888889" font-weight="bold" font-style="normal" fill="#333333" opacity="1" x="12.944" text-anchor="start" y="12.5" textLength="50.94480514526367" style="font-family: Arial, Helvetica Neue, Helvetica, sans-serif;">4491BC</tspan></text></g><g width="76.83333333333333" height="32.5" transform="scale(1,1) translate(820.833,39.833)"><text width="76.83333333333333" height="15.624999046325684" transform="scale(1,1) translate(0,8.437500476837158)" xml:space="preserve"><tspan xml:space="preserve" text-rendering="optimizeSpeed" font-size="13.88888888888889" font-weight="bold" font-style="normal" fill="#333333" opacity="1" x="12.944" text-anchor="start" y="12.5" textLength="50.94480514526367" style="font-family: Arial, Helvetica Neue, Helvetica, sans-serif;">4490BC</tspan></text></g><g width="77.83333333333333" height="32.5" transform="scale(1,1) translate(902.667,39.833)"><text width="77.83333333333333" height="15.624999046325684" transform="scale(1,1) translate(0,8.437500476837158)" xml:space="preserve"><tspan xml:space="preserve" text-rendering="optimizeSpeed" font-size="13.88888888888889" font-weight="bold" font-style="normal" fill="#333333" opacity="1" x="13.444" text-anchor="start" y="12.5" textLength="50.94480514526367" style="font-family: Arial, Helvetica Neue, Helvetica, sans-serif;">4489BC</tspan></text></g><g transform="scale(1,1) translate(0,0)" fill="#7F7F7F" stroke="#7F7F7F" stroke-opacity="1"><path d="M0.5,37.333 L982.5,37.333" fill="none" stroke-width="1" stroke-dasharray="none"/><g><g stroke-dasharray="none"><path d="M-0.5,36.333L1.5,36.333L1.5,38.333L-0.5,38.333z" stroke-width="0" fill="none"/></g></g></g><g transform="scale(1,1) translate(0,0)" fill="#7F7F7F" stroke="#7F7F7F" stroke-opacity="1"><path d="M0.5,74.833 L982.5,74.833" fill="none" stroke-width="1" stroke-dasharray="none"/><g><g stroke-dasharray="none"><path d="M-0.5,73.833L1.5,73.833L1.5,75.833L-0.5,75.833z" stroke-width="0" fill="none"/></g></g></g><g transform="scale(1,1) translate(0,0)" fill="#7F7F7F" stroke="#7F7F7F" stroke-opacity="1"><path d="M81.833,37.833 L81.833,718.167" fill="none" stroke-width="1" stroke-dasharray="none"/><g><g stroke-dasharray="none"><path d="M80.833,36.833L82.833,36.833L82.833,38.833L80.833,38.833z" stroke-width="0" fill="none"/></g></g></g><g transform="scale(1,1) translate(0,0)" fill="#7F7F7F" stroke="#7F7F7F" stroke-opacity="1"><path d="M163.667,37.833 L163.667,718.167" fill="none" stroke-width="1" stroke-dasharray="none"/><g><g stroke-dasharray="none"><path d="M162.667,36.833L164.667,36.833L164.667,38.833L162.667,38.833z" stroke-width="0" fill="none"/></g></g></g><g transform="scale(1,1) translate(0,0)" fill="#7F7F7F" stroke="#7F7F7F" stroke-opacity="1"><path d="M245.5,37.833 L245.5,718.167" fill="none" stroke-width="1" stroke-dasharray="none"/><g><g stroke-dasharray="none"><path d="M244.5,36.833L246.5,36.833L246.5,38.833L244.5,38.833z" stroke-width="0" fill="none"/></g></g></g><g transform="scale(1,1) translate(0,0)" fill="#7F7F7F" stroke="#7F7F7F" stroke-opacity="1"><path d="M327.333,37.833 L327.333,718.167" fill="none" stroke-width="1" stroke-dasharray="none"/><g><g stroke-dasharray="none"><path d="M326.333,36.833L328.333,36.833L328.333,38.833L326.333,38.833z" stroke-width="0" fill="none"/></g></g></g><g transform="scale(1,1) translate(0,0)" fill="#7F7F7F" stroke="#7F7F7F" stroke-opacity="1"><path d="M409.167,37.833 L409.167,718.167" fill="none" stroke-width="1" stroke-dasharray="none"/><g><g stroke-dasharray="none"><path d="M408.167,36.833L410.167,36.833L410.167,38.833L408.167,38.833z" stroke-width="0" fill="none"/></g></g></g><g transform="scale(1,1) translate(0,0)" fill="#7F7F7F" stroke="#7F7F7F" stroke-opacity="1"><path d="M491,37.833 L491,718.167" fill="none" stroke-width="1" stroke-dasharray="none"/><g><g stroke-dasharray="none"><path d="M490,36.833L492,36.833L492,38.833L490,38.833z" stroke-width="0" fill="none"/></g></g></g><g transform="scale(1,1) translate(0,0)" fill="#7F7F7F" stroke="#7F7F7F" stroke-opacity="1"><path d="M572.833,37.833 L572.833,718.167" fill="none" stroke-width="1" stroke-dasharray="none"/><g><g stroke-dasharray="none"><path d="M571.833,36.833L573.833,36.833L573.833,38.833L571.833,38.833z" stroke-width="0" fill="none"/></g></g></g><g transform="scale(1,1) translate(0,0)" fill="#7F7F7F" stroke="#7F7F7F" stroke-opacity="1"><path d="M654.667,37.833 L654.667,718.167" fill="none" stroke-width="1" stroke-dasharray="none"/><g><g stroke-dasharray="none"><path d="M653.667,36.833L655.667,36.833L655.667,38.833L653.667,38.833z" stroke-width="0" fill="none"/></g></g></g><g transform="scale(1,1) translate(0,0)" fill="#7F7F7F" stroke="#7F7F7F" stroke-opacity="1"><path d="M736.5,37.833 L736.5,718.167" fill="none" stroke-width="1" stroke-dasharray="none"/><g><g stroke-dasharray="none"><path d="M735.5,36.833L737.5,36.833L737.5,38.833L735.5,38.833z" stroke-width="0" fill="none"/></g></g></g><g transform="scale(1,1) translate(0,0)" fill="#7F7F7F" stroke="#7F7F7F" stroke-opacity="1"><path d="M818.333,37.833 L818.333,718.167" fill="none" stroke-width="1" stroke-dasharray="none"/><g><g stroke-dasharray="none"><path d="M817.333,36.833L819.333,36.833L819.333,38.833L817.333,38.833z" stroke-width="0" fill="none"/></g></g></g><g transform="scale(1,1) translate(0,0)" fill="#7F7F7F" stroke="#7F7F7F" stroke-opacity="1"><path d="M900.167,37.833 L900.167,718.167" fill="none" stroke-width="1" stroke-dasharray="none"/><g><g stroke-dasharray="none"><path d="M899.167,36.833L901.167,36.833L901.167,38.833L899.167,38.833z" stroke-width="0" fill="none"/></g></g></g><g stroke="white" fill="none" stroke-opacity="0" stroke-width="3" stroke-dasharray="none" width="3" height="717.667" transform="scale(1,1) translate(3.5,0.5)"><rect width="3" height="717.667"/></g><g stroke="white" fill="none" stroke-opacity="0" stroke-width="3" stroke-dasharray="none" width="982" height="3" transform="scale(1,1) translate(0.5,3.5)"><rect width="982" height="3"/></g></g><g width="408.333" height="108.333" transform="scale(1,1) translate(425,191.667)"><g transform="scale(1,1) translate(0,0)" stroke="#7F7F7F" fill="url(#fae69b5a-a1b2-4dbe-8266-621722f39886)" stroke-opacity="1" filter="url(#9a5a5d5b-c323-475d-8440-eacd11ce47ab)"><linearGradient id="fae69b5a-a1b2-4dbe-8266-621722f39886" x1="204.16666570793492" y1="0" x2="204.16666570793492" y2="108.33333397984174" gradientUnits="userSpaceOnUse"><stop offset="0%" style="stop-color:#E1E8F2;stop-opacity:1;"/><stop offset="100%" style="stop-color:#D8E2F0;stop-opacity:1;"/></linearGradient><path d="M378.333,0 L0,0 L0,108.333 L378.333,108.333 L408.333,54.167 L378.333,0 z" stroke-width="1" stroke-dasharray="none"/></g><g width="351.9528130873088" height="76.25554825262168" transform="scale(1,1) translate(2.5,16.039)"><text width="351.9528130873088" height="62.499996185302734" transform="scale(1,1) translate(0,6.877776033659472)" xml:space="preserve"><tspan xml:space="preserve" text-rendering="optimizeSpeed" font-size="13.88888888888889" font-weight="bold" font-style="normal" fill="#333333" opacity="1" x="31.448" text-anchor="start" y="12.5" textLength="285.20001220703125" style="font-family: Arial, Helvetica Neue, Helvetica, sans-serif;">A new group of settlers come in. Their DNA</tspan><tspan xml:space="preserve" text-rendering="optimizeSpeed" font-size="13.88888888888889" font-weight="bold" font-style="normal" fill="#333333" opacity="1" x="9.314" text-anchor="start" y="28.125" textLength="329.4661865234375" style="font-family: Arial, Helvetica Neue, Helvetica, sans-serif;">sequence is written down, and the settlers predict</tspan><tspan xml:space="preserve" text-rendering="optimizeSpeed" font-size="13.88888888888889" font-weight="bold" font-style="normal" fill="#333333" opacity="1" x="22.308" text-anchor="start" y="43.75" textLength="303.4788818359375" style="font-family: Arial, Helvetica Neue, Helvetica, sans-serif;">whether they will live or die based on the DNA</tspan><tspan xml:space="preserve" text-rendering="optimizeSpeed" font-size="13.88888888888889" font-weight="bold" font-style="normal" fill="#333333" opacity="1" x="8.528" text-anchor="start" y="59.375" textLength="334.89605712890625" style="font-family: Arial, Helvetica Neue, Helvetica, sans-serif;">sequences and results of the previous experiment.</tspan></text></g></g><g width="411.667" height="83.472" transform="scale(1,1) translate(13.333,99.861)"><g transform="scale(1,1) translate(0,0)" stroke="#7F7F7F" fill="url(#0b0b41c3-9dcb-436a-8318-668372c8756a)" stroke-opacity="1" filter="url(#9a5a5d5b-c323-475d-8440-eacd11ce47ab)"><linearGradient id="0b0b41c3-9dcb-436a-8318-668372c8756a" x1="205.83333189701443" y1="0" x2="205.83333189701443" y2="83.47215966260542" gradientUnits="userSpaceOnUse"><stop offset="0%" style="stop-color:#E1E8F2;stop-opacity:1;"/><stop offset="100%" style="stop-color:#D8E2F0;stop-opacity:1;"/></linearGradient><path d="M381.667,0 L0,0 L0,83.472 L381.667,83.472 L411.667,41.736 L381.667,0 z" stroke-width="1" stroke-dasharray="none"/></g><g width="386.9546639319155" height="70.5548323349953" transform="scale(1,1) translate(2.5,6.459)"><text width="386.9546639319155" height="62.499996185302734" transform="scale(1,1) translate(0,4.027418074846281)" xml:space="preserve"><tspan xml:space="preserve" text-rendering="optimizeSpeed" font-size="13.88888888888889" font-weight="bold" font-style="normal" fill="#333333" opacity="1" x="9.709" text-anchor="start" y="12.5" textLength="363.6783447265625" style="font-family: Arial, Helvetica Neue, Helvetica, sans-serif;">Settlement is conducting the first 5 year experiment. At</tspan><tspan xml:space="preserve" text-rendering="optimizeSpeed" font-size="13.88888888888889" font-weight="bold" font-style="normal" fill="#333333" opacity="1" x="0.19" text-anchor="start" y="28.125" textLength="382.71636962890625" style="font-family: Arial, Helvetica Neue, Helvetica, sans-serif;">the end of the five years, they have their data telling them,</tspan><tspan xml:space="preserve" text-rendering="optimizeSpeed" font-size="13.88888888888889" font-weight="bold" font-style="normal" fill="#333333" opacity="1" x="10.875" text-anchor="start" y="43.75" textLength="361.34588623046875" style="font-family: Arial, Helvetica Neue, Helvetica, sans-serif;">the DNA sequence of each individual and whether they</tspan><tspan xml:space="preserve" text-rendering="optimizeSpeed" font-size="13.88888888888889" font-weight="bold" font-style="normal" fill="#333333" opacity="1" x="96.246" text-anchor="start" y="59.375" textLength="194.4617919921875" style="font-family: Arial, Helvetica Neue, Helvetica, sans-serif;">survived for five years or not.</tspan></text></g></g><g width="114.892" height="200.893" transform="scale(1,1) translate(826.774,307.441)"><g transform="scale(1,1) translate(0,0)" stroke="#7F7F7F" fill="url(#6922f04f-e44e-45d0-8ac7-7d3b1e2e36ee)" stroke-opacity="1" filter="url(#9a5a5d5b-c323-475d-8440-eacd11ce47ab)"><linearGradient id="6922f04f-e44e-45d0-8ac7-7d3b1e2e36ee" x1="57.44622861824274" y1="0" x2="57.44622861824274" y2="200.89277059299752" gradientUnits="userSpaceOnUse"><stop offset="0%" style="stop-color:#E1E8F2;stop-opacity:1;"/><stop offset="100%" style="stop-color:#D8E2F0;stop-opacity:1;"/></linearGradient><path d="M84.892,0 L0,0 L0,200.893 L84.892,200.893 L114.892,100.446 L84.892,0 z" stroke-width="1" stroke-dasharray="none"/></g><g width="95.52620474694983" height="145.46432110912988" transform="scale(1,1) translate(2.5,27.714)"><text width="95.52620474694983" height="140.62499141693115" transform="scale(1,1) translate(0,2.4196648460993657)" xml:space="preserve"><tspan xml:space="preserve" text-rendering="optimizeSpeed" font-size="13.88888888888889" font-weight="bold" font-style="normal" fill="#333333" opacity="1" x="8.795" text-anchor="start" y="12.5" textLength="74.07811737060547" style="font-family: Arial, Helvetica Neue, Helvetica, sans-serif;">The results</tspan><tspan xml:space="preserve" text-rendering="optimizeSpeed" font-size="13.88888888888889" font-weight="bold" font-style="normal" fill="#333333" opacity="1" x="1.076" text-anchor="start" y="28.125" textLength="89.51612854003906" style="font-family: Arial, Helvetica Neue, Helvetica, sans-serif;">are looked at,</tspan><tspan xml:space="preserve" text-rendering="optimizeSpeed" font-size="13.88888888888889" font-weight="bold" font-style="normal" fill="#333333" opacity="1" x="5.717" text-anchor="start" y="43.75" textLength="80.23431396484375" style="font-family: Arial, Helvetica Neue, Helvetica, sans-serif;">and weights</tspan><tspan xml:space="preserve" text-rendering="optimizeSpeed" font-size="13.88888888888889" font-weight="bold" font-style="normal" fill="#333333" opacity="1" x="6.866" text-anchor="start" y="59.375" textLength="77.93588256835938" style="font-family: Arial, Helvetica Neue, Helvetica, sans-serif;">are given to</tspan><tspan xml:space="preserve" text-rendering="optimizeSpeed" font-size="13.88888888888889" font-weight="bold" font-style="normal" fill="#333333" opacity="1" x="7.243" text-anchor="start" y="75" textLength="77.18338012695312" style="font-family: Arial, Helvetica Neue, Helvetica, sans-serif;">each expert</tspan><tspan xml:space="preserve" text-rendering="optimizeSpeed" font-size="13.88888888888889" font-weight="bold" font-style="normal" fill="#333333" opacity="1" x="0.327" text-anchor="start" y="90.625" textLength="91.014404296875" style="font-family: Arial, Helvetica Neue, Helvetica, sans-serif;">depending on</tspan><tspan xml:space="preserve" text-rendering="optimizeSpeed" font-size="13.88888888888889" font-weight="bold" font-style="normal" fill="#333333" opacity="1" x="13.046" text-anchor="start" y="106.25" textLength="65.57586669921875" style="font-family: Arial, Helvetica Neue, Helvetica, sans-serif;">whether it</tspan><tspan xml:space="preserve" text-rendering="optimizeSpeed" font-size="13.88888888888889" font-weight="bold" font-style="normal" fill="#333333" opacity="1" x="14.585" text-anchor="start" y="121.875" textLength="62.49798583984375" style="font-family: Arial, Helvetica Neue, Helvetica, sans-serif;">predicted</tspan><tspan xml:space="preserve" text-rendering="optimizeSpeed" font-size="13.88888888888889" font-weight="bold" font-style="normal" fill="#333333" opacity="1" x="15.09" text-anchor="start" y="137.5" textLength="61.4876708984375" style="font-family: Arial, Helvetica Neue, Helvetica, sans-serif;">correctly.</tspan></text></g></g></g></svg>